<svg viewBox="0 0 960 540" xmlns="http://www.w3.org/2000/svg">
  <defs>
    <linearGradient id="bg" x1="0" y1="0" x2="1" y2="1">
      <stop offset="0%" stop-color="#1a2150"/>
      <stop offset="100%" stop-color="#10163c"/>
    </linearGradient>
    <linearGradient id="pin" x1="0" y1="0" x2="0" y2="1">
      <stop offset="0%" stop-color="#ff6a88"/>
      <stop offset="100%" stop-color="#ff3d5a"/>
    </linearGradient>
  </defs>
  <rect x="0" y="0" width="960" height="540" fill="url(#bg)"/>
  <g stroke="#2f3b78" stroke-width="4" fill="none" stroke-linecap="round" opacity="0.8">
    <path d="M60 260 Q 200 200, 360 240 T 900 220" stroke-dasharray="8 10">
      <animate attributeName="stroke-dashoffset" from="0" to="-360" dur="12s" repeatCount="indefinite"/>
    </path>
    <path d="M100 340 Q 240 320, 380 380 T 860 360" stroke-dasharray="8 10">
      <animate attributeName="stroke-dashoffset" from="0" to="-360" dur="12s" repeatCount="indefinite"/>
    </path>
    <path d="M120 160 Q 300 180, 520 140 T 900 160" stroke-dasharray="8 10">
      <animate attributeName="stroke-dashoffset" from="0" to="-360" dur="12s" repeatCount="indefinite"/>
    </path>
  </g>
  <g fill="#2a3266">
    <rect x="160" y="290" width="56" height="150" rx="8"/>
    <rect x="230" y="270" width="50" height="170" rx="8"/>
    <rect x="300" y="310" width="46" height="130" rx="8"/>
    <rect x="680" y="310" width="56" height="150" rx="8"/>
    <rect x="750" y="290" width="50" height="170" rx="8"/>
    <rect x="820" y="330" width="46" height="130" rx="8"/>
  </g>
  <g>
    <g transform="translate(410,210)">
      <path d="M28 0c15.5 0 28 12.5 28 28c0 21-28 52-28 52S0 49 0 28C0 12.5 12.5 0 28 0z" fill="url(#pin)"/>
      <circle cx="28" cy="28" r="10" fill="#fff"/>
      <animateTransform attributeName="transform" type="translate" values="410,210;410,204;410,210" dur="4s" repeatCount="indefinite"/>
    </g>
    <g transform="translate(560,340)">
      <path d="M28 0c15.5 0 28 12.5 28 28c0 21-28 52-28 52S0 49 0 28C0 12.5 12.5 0 28 0z" fill="url(#pin)"/>
      <circle cx="28" cy="28" r="10" fill="#fff"/>
      <animateTransform attributeName="transform" type="translate" values="560,340;560,334;560,340" dur="4s" repeatCount="indefinite"/>
    </g>
    <g transform="translate(760,200)">
      <path d="M28 0c15.5 0 28 12.5 28 28c0 21-28 52-28 52S0 49 0 28C0 12.5 12.5 0 28 0z" fill="url(#pin)"/>
      <circle cx="28" cy="28" r="10" fill="#fff"/>
      <animateTransform attributeName="transform" type="translate" values="760,200;760,194;760,200" dur="4s" repeatCount="indefinite"/>
    </g>
  </g>
</svg>
